<?xml version="1.0" encoding="iso-8859-1"?>
<!-- Uploaded to: SVG Repo, www.svgrepo.com, Generator: SVG Repo Mixer Tools -->
<svg fill="#01fae6" height="512px" width="512px" version="1.1" xmlns="http://www.w3.org/2000/svg" xmlns:xlink="http://www.w3.org/1999/xlink"
	 viewBox="0 0 421.59 421.59" xml:space="preserve" stroke="#01fae6">
<g>
	<g>
		<path d="M400.491,291.098l-58.865-36.976l58.864-36.971c2.185-1.372,3.511-3.771,3.511-6.351s-1.326-4.979-3.511-6.352
			l-58.865-36.977l58.862-36.973c2.185-1.373,3.511-3.771,3.511-6.351s-1.326-4.979-3.511-6.351L214.783,1.149
			c-2.438-1.532-5.54-1.532-7.979,0L21.1,117.796c-2.185,1.373-3.511,3.771-3.511,6.351c0,2.58,1.326,4.979,3.511,6.351
			l58.861,36.972l-58.859,36.978c-2.185,1.373-3.51,3.771-3.51,6.351c0,2.58,1.326,4.979,3.511,6.351l58.859,36.97l-58.859,36.979
			c-2.185,1.372-3.51,3.771-3.51,6.351c0,2.58,1.326,4.979,3.511,6.351l185.7,116.64c1.22,0.766,2.604,1.149,3.989,1.149
			s2.77-0.383,3.989-1.149L400.491,303.8c2.185-1.372,3.511-3.771,3.511-6.351C404.002,294.869,402.676,292.47,400.491,291.098z
			 M39.189,124.147l171.605-107.79l171.604,107.79l-171.604,107.79L39.189,124.147z M39.191,210.798l54.869-34.471l112.744,70.818
			c1.219,0.766,2.604,1.149,3.989,1.149c1.385,0,2.77-0.383,3.989-1.149l112.742-70.817l54.875,34.47L210.792,318.582
			L39.191,210.798z M210.792,405.232L39.191,297.448l54.87-34.472l112.742,70.814c1.22,0.766,2.604,1.149,3.989,1.149
			s2.77-0.383,3.989-1.149l112.744-70.812l54.876,34.47L210.792,405.232z"/>
	</g>
</g>
</svg>